<?xml version="1.0" encoding="UTF-8"?>
<!DOCTYPE svg PUBLIC "-//W3C//DTD SVG 1.1//EN" "http://www.w3.org/Graphics/SVG/1.1/DTD/svg11.dtd">
<!-- Creator: CorelDRAW X7 -->
<svg xmlns="http://www.w3.org/2000/svg" xml:space="preserve" width="210mm" height="297mm" version="1.1" style="shape-rendering:geometricPrecision; text-rendering:geometricPrecision; image-rendering:optimizeQuality; fill-rule:evenodd; clip-rule:evenodd"
viewBox="0 0 21000 29700"
 xmlns:xlink="http://www.w3.org/1999/xlink">
 <defs>
  <style type="text/css">
   <![CDATA[
    .fil0 {fill:gray}
    .fil1 {fill:white;fill-rule:nonzero}
   ]]>
  </style>
 </defs>
 <g id="Layer_x0020_1">
  <metadata id="CorelCorpID_0Corel-Layer"/>
  <g id="_3187324249792">
   <rect class="fil0" width="12124" height="7935"/>
   <path class="fil1" d="M5118 5190l-350 0 -1254 -1942c-32,-49 -58,-100 -78,-152l-10 0c8,52 13,163 13,334l0 1760 -285 0 0 -2436 370 0 1220 1911c51,79 84,134 98,163l7 0c-11,-70 -17,-189 -17,-358l0 -1716 286 0 0 2436zm1700 -2436l-1169 2840 -260 0 1166 -2840 263 0zm2180 2436l-316 0 -258 -683 -1034 0 -243 683 -317 0 934 -2436 296 0 938 2436zm-668 -939l-383 -1038c-12,-34 -24,-89 -37,-163l-7 0c-11,69 -24,123 -38,163l-380 1038 845 0z"/>
  </g>
 </g>
</svg>
